<svg xmlns="http://www.w3.org/2000/svg" width="620" height="404" viewBox="0 0 620 404">
  <defs>
    <clipPath id="card"><rect width="620" height="404" rx="14" ry="14"/></clipPath>
    <linearGradient id="acc" x1="0" y1="0" x2="1" y2="0"><stop offset="0%" stop-color="#8fbcbb"/><stop offset="50%" stop-color="#81a1c1"/><stop offset="100%" stop-color="#5e81ac"/></linearGradient>
    <linearGradient id="bdr" x1="0" y1="0" x2="1" y2="1"><stop offset="0%" stop-color="#88c0d0" stop-opacity="0.7"/><stop offset="50%" stop-color="#5e81ac" stop-opacity="0.25"/><stop offset="100%" stop-color="#81a1c1" stop-opacity="0.7"/></linearGradient>
    <pattern id="dots" x="0" y="0" width="20" height="20" patternUnits="userSpaceOnUse">
      <circle cx="10" cy="10" r="1" fill="#eceff4" opacity="0.05"/>
    </pattern>
    <clipPath id="bar">
      <rect x="24" y="126" width="572" height="12" rx="6" ry="6"/>
    </clipPath>
  </defs>

  <!-- Card base + subtle dot texture -->
  <rect width="620" height="404" rx="14" ry="14" fill="#2e3440"/>
  <rect width="620" height="404" rx="14" ry="14" fill="url(#dots)" clip-path="url(#card)"/>

  <!-- Top accent strip (replaces header) -->
  <rect y="0" width="620" height="3" fill="url(#acc)" clip-path="url(#card)"/>

  <g clip-path="url(#card)" font-family="'Segoe UI',system-ui,sans-serif">

    <!-- ── Stat chips ────────────────────────────────────────────────────── -->
    
  <rect x="24" y="16" width="134" height="80" rx="10" ry="10"
        fill="#3b4252" stroke="#4c566a" stroke-width="1"/>
  <rect x="24" y="34" width="3" height="44" rx="1.5"
        fill="#ebcb8b" opacity="0.85"/>
  <g transform="translate(83,26)" fill="#ebcb8b"><path d="M8 .25a.75.75 0 01.673.418l1.882 3.815 4.21.612a.75.75 0 01.416 1.279l-3.046 2.97.719 4.192a.75.75 0 01-1.088.791L8 12.347l-3.766 1.98a.75.75 0 01-1.088-.79l.72-4.194L.818 6.374a.75.75 0 01.416-1.28l4.21-.611L7.327.668A.75.75 0 018 .25z"/></g>
  <text x="91" y="62" text-anchor="middle"
        font-size="9.5" letter-spacing="0.6" fill="#d8dee9">TOTAL STARS</text>
  <text x="91" y="84" text-anchor="middle"
        font-size="20" font-weight="700" fill="#ebcb8b">5</text>
  <rect x="170" y="16" width="134" height="80" rx="10" ry="10"
        fill="#3b4252" stroke="#4c566a" stroke-width="1"/>
  <rect x="170" y="34" width="3" height="44" rx="1.5"
        fill="#a3be8c" opacity="0.85"/>
  <g transform="translate(229,26)" fill="#a3be8c"><path d="M11.93 8.5a4.002 4.002 0 01-7.86 0H.75a.75.75 0 010-1.5H4.07a4.002 4.002 0 017.86 0h3.32a.75.75 0 010 1.5zm-1.43-.75a2.5 2.5 0 10-5 0 2.5 2.5 0 005 0z"/></g>
  <text x="237" y="62" text-anchor="middle"
        font-size="9.5" letter-spacing="0.6" fill="#d8dee9">LIFETIME COMMITS</text>
  <text x="237" y="84" text-anchor="middle"
        font-size="20" font-weight="700" fill="#a3be8c">377</text>
  <rect x="316" y="16" width="134" height="80" rx="10" ry="10"
        fill="#3b4252" stroke="#4c566a" stroke-width="1"/>
  <rect x="316" y="34" width="3" height="44" rx="1.5"
        fill="#88c0d0" opacity="0.85"/>
  <g transform="translate(375,26)" fill="#88c0d0"><path d="M8 0a8 8 0 110 16A8 8 0 018 0zm0 1.5a6.5 6.5 0 100 13 6.5 6.5 0 000-13zm.75 3.25a.75.75 0 00-1.5 0v3.63L5.22 10.4a.75.75 0 001.06 1.06l2.22-2.22a.75.75 0 00.22-.53V4.75z"/></g>
  <text x="383" y="62" text-anchor="middle"
        font-size="9.5" letter-spacing="0.6" fill="#d8dee9">14-DAY COMMITS</text>
  <text x="383" y="84" text-anchor="middle"
        font-size="20" font-weight="700" fill="#88c0d0">46</text>
  <rect x="462" y="16" width="134" height="80" rx="10" ry="10"
        fill="#3b4252" stroke="#4c566a" stroke-width="1"/>
  <rect x="462" y="34" width="3" height="44" rx="1.5"
        fill="#b48ead" opacity="0.85"/>
  <g transform="translate(521,26)" fill="#b48ead"><path d="M4.72 3.22a.75.75 0 011.06 1.06L2.06 8l3.72 3.72a.75.75 0 11-1.06 1.06L.47 8.53a.75.75 0 010-1.06l4.25-4.25zm6.56 0a.75.75 0 10-1.06 1.06L13.94 8l-3.72 3.72a.75.75 0 101.06 1.06l4.25-4.25a.75.75 0 000-1.06l-4.25-4.25z"/></g>
  <text x="529" y="62" text-anchor="middle"
        font-size="9.5" letter-spacing="0.6" fill="#d8dee9">LINES OF CODE</text>
  <text x="529" y="84" text-anchor="middle"
        font-size="20" font-weight="700" fill="#b48ead">37.7k</text>

    <!-- ── Language section ──────────────────────────────────────────────── -->
    <text x="24" y="116"
          font-size="9.5" letter-spacing="1.5" fill="#d8dee9">LANGUAGES</text>
    <g clip-path="url(#bar)"><rect x="24" y="126" width="323" height="12" fill="#b07219"/><rect x="347" y="126" width="194" height="12" fill="#dea584"/><rect x="541" y="126" width="29" height="12" fill="#89e051"/><rect x="570" y="126" width="23" height="12" fill="#3572A5"/><rect x="593" y="126" width="3" height="12" fill="#e34c26"/></g>
    
  <circle cx="29" cy="157" r="4.5" fill="#b07219"/>
  <text x="38" y="162" font-size="12" fill="#eceff4">Java</text>
  <text x="302" y="162" font-size="12" fill="#d8dee9"
        text-anchor="end">56.4%</text>
  <circle cx="323" cy="157" r="4.5" fill="#dea584"/>
  <text x="332" y="162" font-size="12" fill="#eceff4">Rust</text>
  <text x="596" y="162" font-size="12" fill="#d8dee9"
        text-anchor="end">34.0%</text>
  <circle cx="29" cy="179" r="4.5" fill="#89e051"/>
  <text x="38" y="184" font-size="12" fill="#eceff4">Shell</text>
  <text x="302" y="184" font-size="12" fill="#d8dee9"
        text-anchor="end">5.1%</text>
  <circle cx="323" cy="179" r="4.5" fill="#3572A5"/>
  <text x="332" y="184" font-size="12" fill="#eceff4">Python</text>
  <text x="596" y="184" font-size="12" fill="#d8dee9"
        text-anchor="end">4.0%</text>
  <circle cx="29" cy="201" r="4.5" fill="#e34c26"/>
  <text x="38" y="206" font-size="12" fill="#eceff4">HTML</text>
  <text x="302" y="206" font-size="12" fill="#d8dee9"
        text-anchor="end">0.5%</text>

    <!-- ── Divider ───────────────────────────────────────────────────────── -->
    <line x1="24" y1="230" x2="596" y2="230"
          stroke="#434c5e" stroke-width="1"/>

    <!-- ── About ─────────────────────────────────────────────────────────── -->
    
  <g transform="translate(24,248)" fill="#81a1c1" color="#81a1c1"><rect x="1" y="1" width="14" height="14" rx="3" fill="none" stroke="currentColor" stroke-width="1.4"/><path d="M4.5 5.5l3.5 3-3.5 3" fill="none" stroke="currentColor" stroke-width="1.4" stroke-linecap="round" stroke-linejoin="round"/><line x1="9.5" y1="11.5" x2="13" y2="11.5" stroke="currentColor" stroke-width="1.4" stroke-linecap="round"/></g>
  <text x="48" y="264" font-size="10" font-weight="700"
        letter-spacing="0.8" fill="#81a1c1">IDE</text>
  <text x="48" y="281"
           font-size="12.5" fill="#eceff4">Neovim</text>
  <g transform="translate(24,296)" fill="#a3be8c" color="#a3be8c"><rect x="1.5" y="1.5"  width="13" height="3.5" rx="1.75" fill="currentColor" opacity="0.4"/><rect x="1.5" y="6.25" width="13" height="3.5" rx="1.75" fill="currentColor" opacity="0.7"/><rect x="1.5" y="11"   width="13" height="3.5" rx="1.75" fill="currentColor"/></g>
  <text x="48" y="312" font-size="10" font-weight="700"
        letter-spacing="0.8" fill="#a3be8c">STACK</text>
  <text x="48" y="329"
           font-size="12.5" fill="#eceff4">Rust · TypeScript · JavaScript · HTML · CSS · Python · Java · Ruby · Lua · Node.js</text>
  <g transform="translate(24,344)" fill="#d08770" color="#d08770"><path d="M1 2.5A2.5 2.5 0 013.5 0h9.75a.75.75 0 01.75.75v12.5a.75.75 0 01-.75.75h-2.5a.75.75 0 010-1.5h1.75v-2h-8a1 1 0 000 2h.75a.75.75 0 010 1.5H3.5A2.5 2.5 0 011 11.5zm10.5-1V9h-8c-.356 0-.694.074-1 .208V2.5a1 1 0 011-1z"/></g>
  <text x="48" y="360" font-size="10" font-weight="700"
        letter-spacing="0.8" fill="#d08770">LEARNING</text>
  <text x="48" y="377"
           font-size="12.5" fill="#eceff4">WebAssembly · Distributed Systems · Odin · Kotlin · Rust (further)</text>

    <!-- Timestamp -->
    <text x="596" y="398" font-size="9" fill="#81a1c1"
          text-anchor="end">updated 2026-04-24</text>

  </g>

  <!-- Card border drawn on top of content -->
  <rect width="620" height="404" rx="14" ry="14"
        fill="none" stroke="url(#bdr)" stroke-width="1.5"/>
</svg>